<svg version="1.1" xmlns="http://www.w3.org/2000/svg" viewBox="-28.000001 -24.486381275352972 56.000002 49.33931777521174" fill="none" stroke="black" stroke-width="0.6%" vector-effect="non-scaling-stroke">
    <path d="M -18.38478 -20.69498 A 26 9.53044 360 0 1 25.99776 -14.0811 A 26 9.53044 360 1 1 -25.99776 -14.0811 A 26 9.53044 360 0 1 -18.38478 -20.69498 Z" />
    <path d="M -26.99767 13.82597 A 27 9.89699 180 1 0 26.99767 13.82597" />
    <path d="M -10.42983 -17.77905 A 14.75 5.40669 360 0 1 14.74873 -14.02695 A 14.75 5.40669 360 1 1 -14.74873 -14.02695 A 14.75 5.40669 360 0 1 -10.42983 -17.77905 Z" />
    <path d="M -25.99776 -14.0811 L -26.99767 13.82597" />
    <path d="M 25.99776 -14.0811 L 26.99767 13.82597" />
</svg>